<?xml version="1.0" standalone="no"?><!DOCTYPE svg PUBLIC "-//W3C//DTD SVG 1.1//EN" "http://www.w3.org/Graphics/SVG/1.1/DTD/svg11.dtd"><svg t="1610782004756" class="icon" viewBox="0 0 1024 1024" version="1.1" xmlns="http://www.w3.org/2000/svg" p-id="1863" xmlns:xlink="http://www.w3.org/1999/xlink" width="200" height="200"><defs><style type="text/css"></style></defs><path d="M962 257H272c-24.9 0-45-20.1-45-45s20.1-45 45-45h690c24.9 0 45 20.1 45 45s-20.1 45-45 45z" fill="#2081F6" p-id="1864"></path><path d="M77 212m-60 0a60 60 0 1 0 120 0 60 60 0 1 0-120 0Z" fill="#4C4F54" p-id="1865"></path><path d="M962 557H272c-24.9 0-45-20.1-45-45s20.1-45 45-45h690c24.9 0 45 20.1 45 45s-20.1 45-45 45z" fill="#2081F6" p-id="1866"></path><path d="M77 512m-60 0a60 60 0 1 0 120 0 60 60 0 1 0-120 0Z" fill="#4C4F54" p-id="1867"></path><path d="M962 857H272c-24.9 0-45-20.1-45-45s20.1-45 45-45h690c24.9 0 45 20.1 45 45s-20.1 45-45 45z" fill="#2081F6" p-id="1868"></path><path d="M77 812m-60 0a60 60 0 1 0 120 0 60 60 0 1 0-120 0Z" fill="#4C4F54" p-id="1869"></path></svg>